<svg xmlns="http://www.w3.org/2000/svg" viewBox="0 0 358 100" width="358" height="100">
  <line x1="29.7" y1="35.8" x2="17.6" y2="25.8" stroke="#e2e8f0" stroke-width="1.8" opacity="0.4"/>
  <line x1="53.1" y1="34.5" x2="67.7" y2="19.5" stroke="#0ea5e9" stroke-width="1.8" opacity="0.55"/>
  <line x1="52.7" y1="57.9" x2="61.0" y2="67.3" stroke="#e2e8f0" stroke-width="1.8" opacity="0.4"/>
  <line x1="30.2" y1="56.8" x2="24.4" y2="62.0" stroke="#0ea5e9" stroke-width="1.8" opacity="0.4"/>
  <line x1="42" y1="30" x2="42" y2="22" stroke="#0ea5e9" stroke-width="1.8" opacity="0.45"/>
  <circle cx="13" cy="22" r="6"  fill="#e2e8f0"/>
  <circle cx="74" cy="13" r="9"  fill="#0ea5e9" opacity="0.75"/>
  <circle cx="67" cy="74" r="9"  fill="#e2e8f0" opacity="0.5"/>
  <circle cx="20" cy="66" r="6"  fill="#0ea5e9" opacity="0.55"/>
  <circle cx="42" cy="18" r="4"  fill="#0ea5e9" opacity="0.5"/>
  <circle cx="42" cy="46" r="16" fill="#0ea5e9"/>
  <path d="M267 -3C398 -3 505 103 505 234C505 365 398 472 267 472C136 472 30 365 30 234C30 103 136 -3 267 -3ZM267 72C178 72 105 145 105 234C105 324 178 397 267 397C357 397 430 324 430 234C430 145 357 72 267 72Z" transform="translate(96.00,58.72) scale(0.05400,-0.05400)" fill="#e2e8f0"/>
  <path d="M280 474C150 474 43 367 43 237C43 235 43 234 43 232V230V-164C43 -185 59 -201 78 -201C97 -201 113 -185 113 -164V68C156 25 215 -1 280 -1C412 -1 518 105 518 237C518 367 412 474 280 474ZM280 74C191 74 118 147 118 237C118 326 191 399 280 399C370 399 442 326 442 237C442 147 370 74 280 74Z" transform="translate(124.89,58.72) scale(0.05400,-0.05400)" fill="#e2e8f0"/>
  <path d="M468 211C485 214 499 229 499 247C499 373 397 473 269 473C138 473 33 368 33 238C33 115 122 14 251 2C337 -7 406 15 452 61C470 71 479 91 470 108C462 126 441 128 423 121C366 71 307 68 261 73C180 82 122 134 110 209L462 210C464 210 466 210 468 211ZM269 404C351 404 415 344 423 265H110C122 348 189 404 269 404Z" transform="translate(154.48,58.72) scale(0.05400,-0.05400)" fill="#e2e8f0"/>
  <path d="M79 0C100 0 117 17 117 38V267C117 339 176 398 249 398C321 398 379 339 379 267V38C379 17 396 0 418 0C439 0 456 17 456 38V267C456 382 362 474 249 474C134 474 41 382 41 267V38C41 17 58 0 79 0Z" transform="translate(183.21,58.72) scale(0.05400,-0.05400)" fill="#e2e8f0"/>
  <path d="M507 235C507 365 400 471 270 471C140 471 33 365 33 235C33 104 140 -2 270 -2C332 -2 389 21 431 60V37C431 -52 366 -116 279 -124C245 -128 195 -128 145 -96C126 -87 104 -97 95 -115C88 -134 95 -156 115 -165C160 -193 207 -201 250 -201C263 -201 275 -201 286 -200C414 -187 507 -87 507 37V234ZM270 73C182 73 109 145 109 235C109 324 182 396 270 396C359 396 431 324 431 235C431 145 359 73 270 73Z" transform="translate(210.05,58.72) scale(0.05400,-0.05400)" fill="#0ea5e9"/>
  <path d="M84 0C105 0 122 17 122 38V268C122 341 180 399 253 399C309 399 358 364 376 311C383 291 405 280 425 287C445 293 455 315 448 335C419 419 341 475 253 475C139 475 46 382 46 268V38C46 17 64 0 84 0Z" transform="translate(239.91,58.72) scale(0.05400,-0.05400)" fill="#0ea5e9"/>
  <path d="M508 234C508 365 401 472 270 472C139 472 33 365 33 234C33 103 139 -3 270 -3C338 -3 396 32 438 79V35C438 15 453 -1 473 -1C492 -1 508 15 508 35V228C508 229 508 229 508 230ZM270 72C181 72 108 145 108 234C108 324 181 397 270 397C360 397 433 324 433 234C433 145 360 72 270 72Z" transform="translate(265.29,58.72) scale(0.05400,-0.05400)" fill="#0ea5e9"/>
  <path d="M271 624H286C307 624 324 641 324 662C324 683 307 700 286 700H271C165 700 46 633 46 461V38C46 17 63 0 84 0C105 0 122 17 122 38V400H261C280 400 296 416 296 436C296 456 280 471 261 471H122C126 570 188 624 271 624Z" transform="translate(294.83,58.72) scale(0.05400,-0.05400)" fill="#0ea5e9"/>
  <path d="M267 -3C398 -3 505 103 505 234C505 365 398 472 267 472C136 472 30 365 30 234C30 103 136 -3 267 -3ZM267 72C178 72 105 145 105 234C105 324 178 397 267 397C357 397 430 324 430 234C430 145 357 72 267 72Z" transform="translate(313.94,58.72) scale(0.05400,-0.05400)" fill="#0ea5e9"/>
</svg>